<svg width="48" height="48" viewBox="0 0 48 48" fill="none" xmlns="http://www.w3.org/2000/svg">
<circle cx="24.0934" cy="23.959" r="23.541" fill="#D9D9D9"/>
<path d="M24.0934 34.1941C23.1437 34.1941 22.3739 33.4242 22.3739 32.4746V25.6785H15.5778C14.6281 25.6785 13.8583 24.9086 13.8583 23.959C13.8583 23.0093 14.6281 22.2395 15.5778 22.2395H22.3739V15.4434C22.3739 14.4937 23.1437 13.7239 24.0934 13.7239C25.043 13.7239 25.8129 14.4937 25.8129 15.4434V22.2395H32.609C33.5586 22.2395 34.3285 23.0093 34.3285 23.959C34.3285 24.9086 33.5586 25.6785 32.609 25.6785H25.8129V32.4746C25.8129 33.4242 25.043 34.1941 24.0934 34.1941Z" fill="black"/>
</svg>
